<mxfile host="app.diagrams.net" modified="2024-06-20T05:23:56.522Z" agent="Mozilla/5.0 (Windows NT 10.0; Win64; x64; rv:126.0) Gecko/20100101 Firefox/126.0" etag="tDOyLc_hxnRElLjYfjV8" version="24.4.13" type="device">
  <diagram id="yPxyJZ8AM_hMuL3Unpa9" name="gitflow">
    <mxGraphModel dx="2074" dy="745" grid="1" gridSize="10" guides="1" tooltips="1" connect="1" arrows="1" fold="1" page="1" pageScale="1" pageWidth="850" pageHeight="1100" math="0" shadow="0">
      <root>
        <mxCell id="0" />
        <mxCell id="1" parent="0" />
        <mxCell id="7" value="&lt;b&gt;Container&lt;/b&gt;" style="text;html=1;strokeColor=#6c8ebf;fillColor=#dae8fc;align=center;verticalAlign=middle;whiteSpace=wrap;rounded=0;" parent="1" vertex="1">
          <mxGeometry x="40" y="100" width="90" height="20" as="geometry" />
        </mxCell>
        <mxCell id="85" value="" style="text;html=1;strokeColor=#9673a6;fillColor=#e1d5e7;align=center;verticalAlign=middle;whiteSpace=wrap;rounded=0;" parent="1" vertex="1">
          <mxGeometry x="40" y="220" width="90" height="20" as="geometry" />
        </mxCell>
        <mxCell id="102" value="&lt;div align=&quot;left&quot;&gt;&lt;b&gt;Node&lt;/b&gt;&lt;/div&gt;" style="text;html=1;strokeColor=#666666;fillColor=#f5f5f5;align=left;verticalAlign=top;whiteSpace=wrap;rounded=0;fontColor=#333333;" parent="1" vertex="1">
          <mxGeometry x="280" y="70" width="740" height="220" as="geometry" />
        </mxCell>
        <mxCell id="125" value="&lt;b&gt;Service&lt;/b&gt;" style="text;html=1;strokeColor=#d79b00;fillColor=#ffe6cc;align=center;verticalAlign=middle;whiteSpace=wrap;rounded=0;fontSize=12;" parent="1" vertex="1">
          <mxGeometry x="40" y="180" width="90" height="20" as="geometry" />
        </mxCell>
        <mxCell id="-sp5qk3_UaLVJRumCIKt-181" value="&lt;b&gt;POD&lt;/b&gt;" style="text;html=1;strokeColor=#82b366;fillColor=#d5e8d4;align=center;verticalAlign=middle;whiteSpace=wrap;rounded=0;" parent="1" vertex="1">
          <mxGeometry x="40" y="140" width="90" height="20" as="geometry" />
        </mxCell>
        <mxCell id="-sp5qk3_UaLVJRumCIKt-183" value="" style="group" parent="1" vertex="1" connectable="0">
          <mxGeometry x="300" y="110" width="160" height="160" as="geometry" />
        </mxCell>
        <mxCell id="-sp5qk3_UaLVJRumCIKt-180" value="&lt;div align=&quot;center&quot;&gt;&lt;b&gt;LoadBalancer&lt;/b&gt;&lt;/div&gt;&lt;div&gt;&lt;b&gt;&lt;br&gt;&lt;/b&gt;&lt;/div&gt;&lt;div&gt;Port 80&lt;br&gt;&lt;/div&gt;" style="text;html=1;strokeColor=#d79b00;fillColor=#ffe6cc;align=left;verticalAlign=top;whiteSpace=wrap;rounded=0;fontSize=12;" parent="-sp5qk3_UaLVJRumCIKt-183" vertex="1">
          <mxGeometry width="160" height="160" as="geometry" />
        </mxCell>
        <mxCell id="24" value="&lt;b&gt;POD&lt;/b&gt;" style="text;html=1;strokeColor=#82b366;fillColor=#d5e8d4;align=left;verticalAlign=top;whiteSpace=wrap;rounded=0;" parent="-sp5qk3_UaLVJRumCIKt-183" vertex="1">
          <mxGeometry x="10" y="60" width="140" height="90" as="geometry" />
        </mxCell>
        <mxCell id="-sp5qk3_UaLVJRumCIKt-182" value="&lt;div&gt;&lt;b&gt;external-service&lt;/b&gt;&lt;/div&gt;&lt;div&gt;&lt;b&gt;&lt;br&gt;&lt;/b&gt;&lt;/div&gt;&lt;div&gt;Target Port 8080&lt;br&gt;&lt;/div&gt;" style="text;html=1;strokeColor=#6c8ebf;fillColor=#dae8fc;align=left;verticalAlign=top;whiteSpace=wrap;rounded=0;" parent="-sp5qk3_UaLVJRumCIKt-183" vertex="1">
          <mxGeometry x="20" y="90" width="120" height="50" as="geometry" />
        </mxCell>
        <mxCell id="-sp5qk3_UaLVJRumCIKt-184" value="" style="group" parent="1" vertex="1" connectable="0">
          <mxGeometry x="840" y="110" width="160" height="160" as="geometry" />
        </mxCell>
        <mxCell id="-sp5qk3_UaLVJRumCIKt-185" value="&lt;b&gt;ClusterIP&lt;/b&gt;" style="text;html=1;strokeColor=#d79b00;fillColor=#ffe6cc;align=left;verticalAlign=top;whiteSpace=wrap;rounded=0;fontSize=12;" parent="-sp5qk3_UaLVJRumCIKt-184" vertex="1">
          <mxGeometry width="160" height="160" as="geometry" />
        </mxCell>
        <mxCell id="-sp5qk3_UaLVJRumCIKt-186" value="&lt;b&gt;POD&lt;/b&gt;" style="text;html=1;strokeColor=#82b366;fillColor=#d5e8d4;align=left;verticalAlign=top;whiteSpace=wrap;rounded=0;" parent="-sp5qk3_UaLVJRumCIKt-184" vertex="1">
          <mxGeometry x="10" y="30" width="140" height="120" as="geometry" />
        </mxCell>
        <mxCell id="-sp5qk3_UaLVJRumCIKt-187" value="&lt;div&gt;&lt;b&gt;Database&lt;/b&gt;&lt;/div&gt;&lt;div&gt;&lt;b&gt;&lt;br&gt;&lt;/b&gt;&lt;/div&gt;&lt;div&gt;Target Port 3306&lt;br&gt;&lt;/div&gt;" style="text;html=1;strokeColor=#6c8ebf;fillColor=#dae8fc;align=left;verticalAlign=top;whiteSpace=wrap;rounded=0;" parent="-sp5qk3_UaLVJRumCIKt-184" vertex="1">
          <mxGeometry x="20" y="60" width="120" height="80" as="geometry" />
        </mxCell>
        <mxCell id="-sp5qk3_UaLVJRumCIKt-188" value="" style="group" parent="1" vertex="1" connectable="0">
          <mxGeometry x="569" y="110" width="160" height="160" as="geometry" />
        </mxCell>
        <mxCell id="-sp5qk3_UaLVJRumCIKt-189" value="&lt;b&gt;ClusterIP&lt;/b&gt;" style="text;html=1;strokeColor=#d79b00;fillColor=#ffe6cc;align=left;verticalAlign=top;whiteSpace=wrap;rounded=0;fontSize=12;" parent="-sp5qk3_UaLVJRumCIKt-188" vertex="1">
          <mxGeometry width="160" height="160" as="geometry" />
        </mxCell>
        <mxCell id="-sp5qk3_UaLVJRumCIKt-190" value="&lt;b&gt;POD&lt;/b&gt;" style="text;html=1;strokeColor=#82b366;fillColor=#d5e8d4;align=left;verticalAlign=top;whiteSpace=wrap;rounded=0;" parent="-sp5qk3_UaLVJRumCIKt-188" vertex="1">
          <mxGeometry x="10" y="30" width="140" height="120" as="geometry" />
        </mxCell>
        <mxCell id="-sp5qk3_UaLVJRumCIKt-191" value="&lt;div&gt;&lt;b&gt;internal-service&lt;/b&gt;&lt;/div&gt;&lt;div&gt;&lt;b&gt;&lt;br&gt;&lt;/b&gt;&lt;/div&gt;&lt;div&gt;Target Port 8081&lt;br&gt;&lt;/div&gt;" style="text;html=1;strokeColor=#6c8ebf;fillColor=#dae8fc;align=left;verticalAlign=top;whiteSpace=wrap;rounded=0;" parent="-sp5qk3_UaLVJRumCIKt-188" vertex="1">
          <mxGeometry x="20" y="60" width="120" height="80" as="geometry" />
        </mxCell>
        <mxCell id="-sp5qk3_UaLVJRumCIKt-192" value="Client" style="shape=umlActor;verticalLabelPosition=bottom;verticalAlign=top;html=1;outlineConnect=0;" parent="1" vertex="1">
          <mxGeometry x="180" y="164" width="30" height="60" as="geometry" />
        </mxCell>
        <mxCell id="-sp5qk3_UaLVJRumCIKt-196" style="edgeStyle=orthogonalEdgeStyle;rounded=0;orthogonalLoop=1;jettySize=auto;html=1;exitX=1;exitY=0.3333333333333333;exitDx=0;exitDy=0;exitPerimeter=0;entryX=0.019;entryY=0.463;entryDx=0;entryDy=0;entryPerimeter=0;" parent="1" source="-sp5qk3_UaLVJRumCIKt-192" target="-sp5qk3_UaLVJRumCIKt-180" edge="1">
          <mxGeometry relative="1" as="geometry" />
        </mxCell>
        <mxCell id="-sp5qk3_UaLVJRumCIKt-197" value="" style="endArrow=classic;html=1;rounded=0;exitX=1;exitY=0.5;exitDx=0;exitDy=0;entryX=0;entryY=0.5;entryDx=0;entryDy=0;" parent="1" source="-sp5qk3_UaLVJRumCIKt-180" target="-sp5qk3_UaLVJRumCIKt-189" edge="1">
          <mxGeometry width="50" height="50" relative="1" as="geometry">
            <mxPoint x="820" y="470" as="sourcePoint" />
            <mxPoint x="870" y="420" as="targetPoint" />
          </mxGeometry>
        </mxCell>
        <mxCell id="-sp5qk3_UaLVJRumCIKt-198" style="edgeStyle=orthogonalEdgeStyle;rounded=0;orthogonalLoop=1;jettySize=auto;html=1;exitX=1;exitY=0.5;exitDx=0;exitDy=0;entryX=0;entryY=0.5;entryDx=0;entryDy=0;" parent="1" source="-sp5qk3_UaLVJRumCIKt-189" target="-sp5qk3_UaLVJRumCIKt-185" edge="1">
          <mxGeometry relative="1" as="geometry" />
        </mxCell>
      </root>
    </mxGraphModel>
  </diagram>
</mxfile>
